<svg xmlns="http://www.w3.org/2000/svg" viewBox="0 0 1500 500" width="1500" height="500" role="img">
<title>Poojitha Karnam – DevOps &amp; Cloud Engineer</title>
<desc>GitHub profile banner for Poojitha Karnam, DevOps and Cloud Engineer from Andhra Pradesh, India</desc>

<defs>
  <linearGradient id="bgGrad" x1="0%" y1="0%" x2="100%" y2="100%">
    <stop offset="0%" style="stop-color:#f0f4ff"/>
    <stop offset="100%" style="stop-color:#faf5ff"/>
  </linearGradient>
  <linearGradient id="accentLine" x1="0%" y1="0%" x2="0%" y2="100%">
    <stop offset="0%" style="stop-color:#6366f1;stop-opacity:0"/>
    <stop offset="50%" style="stop-color:#6366f1;stop-opacity:0.6"/>
    <stop offset="100%" style="stop-color:#6366f1;stop-opacity:0"/>
  </linearGradient>
  <clipPath id="bannerClip">
    <rect width="1500" height="500" rx="18"/>
  </clipPath>
</defs>

<g clip-path="url(#bannerClip)">

<rect width="1500" height="500" fill="url(#bgGrad)"/>

<rect x="0" y="0" width="1500" height="500" fill="#ffffff" opacity="0.55"/>

<line x1="40" y1="0" x2="40" y2="500" stroke="#e2e8f0" stroke-width="1"/>
<line x1="80" y1="0" x2="80" y2="500" stroke="#e2e8f0" stroke-width="0.4"/>
<line x1="120" y1="0" x2="120" y2="500" stroke="#e2e8f0" stroke-width="0.4"/>
<line x1="160" y1="0" x2="160" y2="500" stroke="#e2e8f0" stroke-width="0.4"/>
<line x1="200" y1="0" x2="200" y2="500" stroke="#e2e8f0" stroke-width="1"/>
<line x1="240" y1="0" x2="240" y2="500" stroke="#e2e8f0" stroke-width="0.4"/>
<line x1="280" y1="0" x2="280" y2="500" stroke="#e2e8f0" stroke-width="0.4"/>
<line x1="320" y1="0" x2="320" y2="500" stroke="#e2e8f0" stroke-width="0.4"/>
<line x1="360" y1="0" x2="360" y2="500" stroke="#e2e8f0" stroke-width="1"/>
<line x1="400" y1="0" x2="400" y2="500" stroke="#e2e8f0" stroke-width="0.4"/>
<line x1="440" y1="0" x2="440" y2="500" stroke="#e2e8f0" stroke-width="0.4"/>
<line x1="480" y1="0" x2="480" y2="500" stroke="#e2e8f0" stroke-width="0.4"/>
<line x1="520" y1="0" x2="520" y2="500" stroke="#e2e8f0" stroke-width="1"/>
<line x1="560" y1="0" x2="560" y2="500" stroke="#e2e8f0" stroke-width="0.4"/>
<line x1="600" y1="0" x2="600" y2="500" stroke="#e2e8f0" stroke-width="0.4"/>
<line x1="640" y1="0" x2="640" y2="500" stroke="#e2e8f0" stroke-width="0.4"/>
<line x1="680" y1="0" x2="680" y2="500" stroke="#e2e8f0" stroke-width="1"/>
<line x1="720" y1="0" x2="720" y2="500" stroke="#e2e8f0" stroke-width="0.4"/>
<line x1="760" y1="0" x2="760" y2="500" stroke="#e2e8f0" stroke-width="0.4"/>
<line x1="800" y1="0" x2="800" y2="500" stroke="#e2e8f0" stroke-width="0.4"/>
<line x1="840" y1="0" x2="840" y2="500" stroke="#e2e8f0" stroke-width="1"/>
<line x1="880" y1="0" x2="880" y2="500" stroke="#e2e8f0" stroke-width="0.4"/>
<line x1="920" y1="0" x2="920" y2="500" stroke="#e2e8f0" stroke-width="0.4"/>
<line x1="960" y1="0" x2="960" y2="500" stroke="#e2e8f0" stroke-width="0.4"/>
<line x1="1000" y1="0" x2="1000" y2="500" stroke="#e2e8f0" stroke-width="1"/>
<line x1="1040" y1="0" x2="1040" y2="500" stroke="#e2e8f0" stroke-width="0.4"/>
<line x1="1080" y1="0" x2="1080" y2="500" stroke="#e2e8f0" stroke-width="0.4"/>
<line x1="1120" y1="0" x2="1120" y2="500" stroke="#e2e8f0" stroke-width="0.4"/>
<line x1="1160" y1="0" x2="1160" y2="500" stroke="#e2e8f0" stroke-width="1"/>
<line x1="1200" y1="0" x2="1200" y2="500" stroke="#e2e8f0" stroke-width="0.4"/>
<line x1="1240" y1="0" x2="1240" y2="500" stroke="#e2e8f0" stroke-width="0.4"/>
<line x1="1280" y1="0" x2="1280" y2="500" stroke="#e2e8f0" stroke-width="0.4"/>
<line x1="1320" y1="0" x2="1320" y2="500" stroke="#e2e8f0" stroke-width="1"/>
<line x1="1360" y1="0" x2="1360" y2="500" stroke="#e2e8f0" stroke-width="0.4"/>
<line x1="1400" y1="0" x2="1400" y2="500" stroke="#e2e8f0" stroke-width="0.4"/>
<line x1="1440" y1="0" x2="1440" y2="500" stroke="#e2e8f0" stroke-width="0.4"/>
<line x1="0" y1="40" x2="1500" y2="40" stroke="#e2e8f0" stroke-width="1"/>
<line x1="0" y1="80" x2="1500" y2="80" stroke="#e2e8f0" stroke-width="0.4"/>
<line x1="0" y1="120" x2="1500" y2="120" stroke="#e2e8f0" stroke-width="0.4"/>
<line x1="0" y1="160" x2="1500" y2="160" stroke="#e2e8f0" stroke-width="0.4"/>
<line x1="0" y1="200" x2="1500" y2="200" stroke="#e2e8f0" stroke-width="1"/>
<line x1="0" y1="240" x2="1500" y2="240" stroke="#e2e8f0" stroke-width="0.4"/>
<line x1="0" y1="280" x2="1500" y2="280" stroke="#e2e8f0" stroke-width="0.4"/>
<line x1="0" y1="320" x2="1500" y2="320" stroke="#e2e8f0" stroke-width="0.4"/>
<line x1="0" y1="360" x2="1500" y2="360" stroke="#e2e8f0" stroke-width="1"/>
<line x1="0" y1="400" x2="1500" y2="400" stroke="#e2e8f0" stroke-width="0.4"/>
<line x1="0" y1="440" x2="1500" y2="440" stroke="#e2e8f0" stroke-width="0.4"/>
<line x1="0" y1="480" x2="1500" y2="480" stroke="#e2e8f0" stroke-width="0.4"/>

<rect x="0" y="0" width="6" height="500" fill="#6366f1"/>

<rect x="6" y="0" width="694" height="500" fill="#f8faff" opacity="0.7"/>

<text x="60" y="130" font-family="'Segoe UI',system-ui,sans-serif" font-size="13" font-weight="600" fill="#6366f1" letter-spacing="3">DEVOPS &amp; CLOUD ENGINEER</text>

<text x="58" y="205" font-family="'Segoe UI',system-ui,sans-serif" font-size="68" font-weight="800" fill="#1e293b" letter-spacing="-2">Poojitha</text>
<text x="58" y="275" font-family="'Segoe UI',system-ui,sans-serif" font-size="68" font-weight="800" fill="#6366f1" letter-spacing="-2">Karnam</text>

<text x="60" y="322" font-family="'Courier New',monospace" font-size="15" fill="#64748b">$ Building CI/CD · Automating infra · Exploring cloud</text>

<rect x="60" y="348" width="160" height="32" rx="6" fill="#6366f1"/>
<text x="140" y="369" font-family="'Segoe UI',system-ui,sans-serif" font-size="13" font-weight="700" fill="#ffffff" text-anchor="middle">Open to Work</text>

<rect x="232" y="348" width="150" height="32" rx="6" fill="none" stroke="#6366f1" stroke-width="1.5"/>
<text x="307" y="369" font-family="'Segoe UI',system-ui,sans-serif" font-size="13" font-weight="600" fill="#6366f1" text-anchor="middle">Andhra Pradesh, IN</text>

<rect x="60" y="415" width="530" height="1" fill="#e2e8f0"/>

<text x="60" y="448" font-family="'Segoe UI',system-ui,sans-serif" font-size="12" fill="#94a3b8">poojithacareer41@gmail.com</text>
<text x="60" y="470" font-family="'Segoe UI',system-ui,sans-serif" font-size="12" fill="#94a3b8">github.com/PoojithaKarnam</text>

<rect x="700" y="0" width="1" height="500" fill="url(#accentLine)"/>

<text x="760" y="66" font-family="'Segoe UI',system-ui,sans-serif" font-size="12" font-weight="600" fill="#94a3b8" letter-spacing="2">TECH STACK</text>
<rect x="760" y="72" width="680" height="1" fill="#e2e8f0"/>

<g transform="translate(760,100)">
  <rect width="120" height="62" rx="10" fill="#ffffff" stroke="#e2e8f0" stroke-width="1"/>
  <g transform="translate(14,10)">
    <path d="M46 20L37 0 28 20z" fill="#FF9900"/>
    <path d="M0 20h92" stroke="#232F3E" stroke-width="3" fill="none"/>
    <path d="M12 20v8M80 20v8" stroke="#232F3E" stroke-width="3"/>
    <path d="M6 28h12M74 28h12" stroke="#232F3E" stroke-width="3" stroke-linecap="round"/>
  </g>
  <text x="60" y="53" font-family="'Segoe UI',system-ui,sans-serif" font-size="11" font-weight="700" fill="#232F3E" text-anchor="middle">AWS</text>
</g>

<g transform="translate(896,100)">
  <rect width="120" height="62" rx="10" fill="#ffffff" stroke="#e2e8f0" stroke-width="1"/>
  <g transform="translate(32,9)">
    <rect x="0" y="0" width="56" height="56" rx="4" fill="#0078D4"/>
    <path d="M8 44 L28 8 L48 44z" fill="#ffffff" opacity="0.9"/>
    <path d="M16 44 L36 44 L48 22" fill="none" stroke="#50E6FF" stroke-width="3"/>
  </g>
  <text x="60" y="53" font-family="'Segoe UI',system-ui,sans-serif" font-size="11" font-weight="700" fill="#0078D4" text-anchor="middle">Azure</text>
</g>

<g transform="translate(1032,100)">
  <rect width="120" height="62" rx="10" fill="#ffffff" stroke="#e2e8f0" stroke-width="1"/>
  <g transform="translate(32,8)">
    <path d="M28 0L56 16V44L28 60L0 44V16z" fill="#7B42BC"/>
    <path d="M28 12L44 21V39L28 48L12 39V21z" fill="#ffffff"/>
    <path d="M28 20L36 25V35L28 40L20 35V25z" fill="#7B42BC"/>
  </g>
  <text x="60" y="53" font-family="'Segoe UI',system-ui,sans-serif" font-size="11" font-weight="700" fill="#7B42BC" text-anchor="middle">Terraform</text>
</g>

<g transform="translate(1168,100)">
  <rect width="120" height="62" rx="10" fill="#ffffff" stroke="#e2e8f0" stroke-width="1"/>
  <g transform="translate(22,8)">
    <rect x="0" y="10" width="52" height="38" rx="6" fill="#2496ED"/>
    <path d="M8 29 Q26 18 44 29" fill="#2496ED" stroke="#ffffff" stroke-width="2"/>
    <circle cx="26" cy="29" r="7" fill="#ffffff"/>
    <circle cx="26" cy="29" r="3" fill="#2496ED"/>
    <rect x="18" y="0" width="8" height="10" rx="2" fill="#2496ED"/>
    <rect x="32" y="3" width="8" height="10" rx="2" fill="#2496ED"/>
  </g>
  <text x="60" y="53" font-family="'Segoe UI',system-ui,sans-serif" font-size="11" font-weight="700" fill="#2496ED" text-anchor="middle">Docker</text>
</g>

<g transform="translate(1304,100)">
  <rect width="120" height="62" rx="10" fill="#ffffff" stroke="#e2e8f0" stroke-width="1"/>
  <g transform="translate(32,8)">
    <circle cx="28" cy="28" r="22" fill="#326CE5"/>
    <circle cx="28" cy="28" r="16" fill="#ffffff"/>
    <circle cx="28" cy="28" r="5" fill="#326CE5"/>
    <line x1="28" y1="6" x2="28" y2="14" stroke="#326CE5" stroke-width="3.5"/>
    <line x1="28" y1="42" x2="28" y2="50" stroke="#326CE5" stroke-width="3.5"/>
    <line x1="6" y1="28" x2="14" y2="28" stroke="#326CE5" stroke-width="3.5"/>
    <line x1="42" y1="28" x2="50" y2="28" stroke="#326CE5" stroke-width="3.5"/>
    <line x1="12" y1="12" x2="18" y2="18" stroke="#326CE5" stroke-width="3"/>
    <line x1="38" y1="38" x2="44" y2="44" stroke="#326CE5" stroke-width="3"/>
    <line x1="44" y1="12" x2="38" y2="18" stroke="#326CE5" stroke-width="3"/>
    <line x1="18" y1="38" x2="12" y2="44" stroke="#326CE5" stroke-width="3"/>
  </g>
  <text x="60" y="53" font-family="'Segoe UI',system-ui,sans-serif" font-size="11" font-weight="700" fill="#326CE5" text-anchor="middle">Kubernetes</text>
</g>

<g transform="translate(760,178)">
  <rect width="120" height="62" rx="10" fill="#ffffff" stroke="#e2e8f0" stroke-width="1"/>
  <g transform="translate(24,8)">
    <rect x="0" y="0" width="72" height="50" rx="5" fill="#D33833"/>
    <rect x="6" y="6" width="60" height="20" rx="3" fill="#ffffff"/>
    <circle cx="16" cy="16" r="4" fill="#D33833"/>
    <circle cx="30" cy="16" r="4" fill="#D33833"/>
    <circle cx="44" cy="16" r="4" fill="#D33833"/>
    <rect x="10" y="32" width="52" height="10" rx="2" fill="#ffffff" opacity="0.3"/>
  </g>
  <text x="60" y="53" font-family="'Segoe UI',system-ui,sans-serif" font-size="11" font-weight="700" fill="#D33833" text-anchor="middle">Jenkins</text>
</g>

<g transform="translate(896,178)">
  <rect width="120" height="62" rx="10" fill="#ffffff" stroke="#e2e8f0" stroke-width="1"/>
  <g transform="translate(24,8)">
    <ellipse cx="36" cy="25" rx="30" ry="18" fill="#FFD133"/>
    <ellipse cx="36" cy="25" rx="22" ry="12" fill="#333333"/>
    <ellipse cx="36" cy="25" rx="14" ry="7" fill="#FFD133"/>
    <rect x="26" y="38" width="20" height="6" rx="1" fill="#333333"/>
    <rect x="22" y="42" width="28" height="4" rx="1" fill="#555555"/>
  </g>
  <text x="60" y="53" font-family="'Segoe UI',system-ui,sans-serif" font-size="11" font-weight="700" fill="#333333" text-anchor="middle">Linux</text>
</g>

<g transform="translate(1032,178)">
  <rect width="120" height="62" rx="10" fill="#ffffff" stroke="#e2e8f0" stroke-width="1"/>
  <g transform="translate(24,6)">
    <path d="M36 4 L60 18 L60 46 L36 60 L12 46 L12 18z" fill="#3776AB"/>
    <path d="M24 20 Q24 36 36 36 Q48 36 48 20" fill="none" stroke="#FFD343" stroke-width="4"/>
    <path d="M24 44 Q24 28 36 28 Q48 28 48 44" fill="none" stroke="#ffffff" stroke-width="4"/>
  </g>
  <text x="60" y="53" font-family="'Segoe UI',system-ui,sans-serif" font-size="11" font-weight="700" fill="#3776AB" text-anchor="middle">Python</text>
</g>

<g transform="translate(1168,178)">
  <rect width="120" height="62" rx="10" fill="#ffffff" stroke="#e2e8f0" stroke-width="1"/>
  <g transform="translate(16,10)">
    <rect x="0" y="10" width="88" height="26" rx="3" fill="#009639"/>
    <text x="44" y="28" font-family="'Segoe UI',system-ui,sans-serif" font-size="14" font-weight="900" fill="#ffffff" text-anchor="middle">nginx</text>
  </g>
  <text x="60" y="53" font-family="'Segoe UI',system-ui,sans-serif" font-size="11" font-weight="700" fill="#009639" text-anchor="middle">Nginx</text>
</g>

<g transform="translate(1304,178)">
  <rect width="120" height="62" rx="10" fill="#ffffff" stroke="#e2e8f0" stroke-width="1"/>
  <g transform="translate(20,6)">
    <path d="M40 4 L68 20 L68 52 L40 68 L12 52 L12 20z" fill="#F05032"/>
    <path d="M40 16 L52 28 L40 40 L28 28z" fill="#ffffff"/>
    <line x1="40" y1="4" x2="40" y2="16" stroke="#ffffff" stroke-width="3"/>
    <line x1="40" y1="40" x2="40" y2="52" stroke="#ffffff" stroke-width="3"/>
    <line x1="12" y1="28" x2="28" y2="28" stroke="#ffffff" stroke-width="3"/>
    <line x1="52" y1="28" x2="68" y2="28" stroke="#ffffff" stroke-width="3"/>
  </g>
  <text x="60" y="53" font-family="'Segoe UI',system-ui,sans-serif" font-size="11" font-weight="700" fill="#F05032" text-anchor="middle">Git</text>
</g>

<g transform="translate(760,256)">
  <rect width="120" height="62" rx="10" fill="#ffffff" stroke="#e2e8f0" stroke-width="1"/>
  <g transform="translate(16,8)">
    <rect x="0" y="5" width="88" height="36" rx="4" fill="#C71A36"/>
    <path d="M8 12 L44 12 L44 34 L8 34z" fill="#ffffff" opacity="0.15"/>
    <text x="44" y="30" font-family="'Segoe UI',system-ui,sans-serif" font-size="16" font-weight="900" fill="#ffffff" text-anchor="middle">M</text>
    <path d="M50 12 L80 12 L80 34 L50 34z" fill="none"/>
    <text x="65" y="30" font-family="'Segoe UI',system-ui,sans-serif" font-size="13" font-weight="700" fill="#ffffff" text-anchor="middle">maven</text>
  </g>
  <text x="60" y="53" font-family="'Segoe UI',system-ui,sans-serif" font-size="11" font-weight="700" fill="#C71A36" text-anchor="middle">Maven</text>
</g>

<g transform="translate(896,256)">
  <rect width="120" height="62" rx="10" fill="#ffffff" stroke="#e2e8f0" stroke-width="1"/>
  <g transform="translate(20,8)">
    <rect x="0" y="0" width="80" height="46" rx="5" fill="#549DD0"/>
    <rect x="6" y="6" width="68" height="8" rx="2" fill="#ffffff" opacity="0.4"/>
    <path d="M15 24 Q40 14 65 24 Q40 34 15 24z" fill="#ffffff" opacity="0.8"/>
    <circle cx="40" cy="24" r="5" fill="#549DD0"/>
    <circle cx="40" cy="24" r="3" fill="#ffffff"/>
  </g>
  <text x="60" y="53" font-family="'Segoe UI',system-ui,sans-serif" font-size="11" font-weight="700" fill="#549DD0" text-anchor="middle">SonarQube</text>
</g>

<g transform="translate(1032,256)">
  <rect width="120" height="62" rx="10" fill="#ffffff" stroke="#e2e8f0" stroke-width="1"/>
  <g transform="translate(20,6)">
    <rect x="0" y="6" width="80" height="44" rx="8" fill="#41BF47"/>
    <path d="M8 50 L40 14 L72 50z" fill="#ffffff" opacity="0.2"/>
    <text x="40" y="38" font-family="'Segoe UI',system-ui,sans-serif" font-size="16" font-weight="900" fill="#ffffff" text-anchor="middle">JF</text>
  </g>
  <text x="60" y="53" font-family="'Segoe UI',system-ui,sans-serif" font-size="11" font-weight="700" fill="#41BF47" text-anchor="middle">JFrog</text>
</g>

<g transform="translate(1168,256)">
  <rect width="120" height="62" rx="10" fill="#ffffff" stroke="#e2e8f0" stroke-width="1"/>
  <g transform="translate(20,8)">
    <rect x="0" y="0" width="80" height="46" rx="5" fill="#1E4D78"/>
    <rect x="8" y="8" width="64" height="10" rx="2" fill="#4FC3F7"/>
    <rect x="8" y="24" width="48" height="8" rx="2" fill="#81D4FA"/>
    <rect x="8" y="36" width="32" height="6" rx="2" fill="#B3E5FC"/>
  </g>
  <text x="60" y="53" font-family="'Segoe UI',system-ui,sans-serif" font-size="11" font-weight="700" fill="#1E4D78" text-anchor="middle">Ansible</text>
</g>

<g transform="translate(1304,256)">
  <rect width="120" height="62" rx="10" fill="#ffffff" stroke="#e2e8f0" stroke-width="1"/>
  <g transform="translate(22,8)">
    <rect x="0" y="0" width="76" height="46" rx="5" fill="#EE0000"/>
    <path d="M8 46 L38 6 L68 46z" fill="#ffffff" opacity="0.2"/>
    <text x="38" y="32" font-family="'Segoe UI',monospace" font-size="16" font-weight="900" fill="#ffffff" text-anchor="middle">{ }</text>
  </g>
  <text x="60" y="53" font-family="'Segoe UI',system-ui,sans-serif" font-size="11" font-weight="700" fill="#EE0000" text-anchor="middle">Red Hat</text>
</g>

<text x="760" y="358" font-family="'Segoe UI',system-ui,sans-serif" font-size="12" font-weight="600" fill="#94a3b8" letter-spacing="2">PIPELINE FLOW</text>
<rect x="760" y="364" width="680" height="1" fill="#e2e8f0"/>

<g transform="translate(760,378)">
  <rect width="84" height="36" rx="8" fill="#f1f5f9" stroke="#cbd5e1" stroke-width="1"/>
  <text x="42" y="21" font-family="'Courier New',monospace" font-size="11" font-weight="700" fill="#64748b" text-anchor="middle">CODE</text>
  <line x1="4" y1="28" x2="80" y2="28" stroke="#6366f1" stroke-width="1" stroke-dasharray="3,2" opacity="0.4"/>
</g>
<path d="M856,396 L876,396" stroke="#cbd5e1" stroke-width="1.5" fill="none"/>
<polygon points="876,392 884,396 876,400" fill="#cbd5e1"/>

<g transform="translate(884,378)">
  <rect width="84" height="36" rx="8" fill="#ede9fe" stroke="#a78bfa" stroke-width="1"/>
  <text x="42" y="21" font-family="'Courier New',monospace" font-size="11" font-weight="700" fill="#7c3aed" text-anchor="middle">BUILD</text>
</g>
<path d="M968,396 L988,396" stroke="#a78bfa" stroke-width="1.5" fill="none"/>
<polygon points="988,392 996,396 988,400" fill="#a78bfa"/>

<g transform="translate(996,378)">
  <rect width="84" height="36" rx="8" fill="#dcfce7" stroke="#86efac" stroke-width="1"/>
  <text x="42" y="21" font-family="'Courier New',monospace" font-size="11" font-weight="700" fill="#166534" text-anchor="middle">TEST</text>
</g>
<path d="M1080,396 L1100,396" stroke="#86efac" stroke-width="1.5" fill="none"/>
<polygon points="1100,392 1108,396 1100,400" fill="#86efac"/>

<g transform="translate(1108,378)">
  <rect width="84" height="36" rx="8" fill="#dbeafe" stroke="#93c5fd" stroke-width="1"/>
  <text x="42" y="21" font-family="'Courier New',monospace" font-size="11" font-weight="700" fill="#1d4ed8" text-anchor="middle">DEPLOY</text>
</g>
<path d="M1192,396 L1212,396" stroke="#93c5fd" stroke-width="1.5" fill="none"/>
<polygon points="1212,392 1220,396 1212,400" fill="#93c5fd"/>

<g transform="translate(1220,378)">
  <rect width="84" height="36" rx="8" fill="#fef3c7" stroke="#fcd34d" stroke-width="1"/>
  <text x="42" y="21" font-family="'Courier New',monospace" font-size="11" font-weight="700" fill="#92400e" text-anchor="middle">CLOUD</text>
</g>
<path d="M1304,396 L1324,396" stroke="#fcd34d" stroke-width="1.5" fill="none"/>
<polygon points="1324,392 1332,396 1324,400" fill="#fcd34d"/>

<g transform="translate(1332,378)">
  <rect width="100" height="36" rx="8" fill="#dcfce7" stroke="#4ade80" stroke-width="1.5"/>
  <circle cx="16" cy="18" r="5" fill="#4ade80"/>
  <text x="58" y="21" font-family="'Courier New',monospace" font-size="11" font-weight="700" fill="#166534" text-anchor="middle">LIVE</text>
</g>

<text x="760" y="448" font-family="'Segoe UI',system-ui,sans-serif" font-size="12" fill="#94a3b8">Currently Learning DevOps &amp; Cloud  ·  Open to DevOps / Cloud Engineer Roles</text>

<rect x="0" y="0" width="1500" height="500" rx="18" fill="none" stroke="#e2e8f0" stroke-width="1.5"/>
<rect x="0" y="0" width="32" height="32" rx="0" fill="none" stroke="#6366f1" stroke-width="2" clip-path="url(#bannerClip)"/>
<rect x="1468" y="468" width="32" height="32" rx="0" fill="none" stroke="#6366f1" stroke-width="2" clip-path="url(#bannerClip)"/>

</g>
</svg>
